<svg width="147" height="36" viewBox="0 0 147 36" fill="none" xmlns="http://www.w3.org/2000/svg">
<g clip-path="url(#clip0_48_271)">
<path d="M42.7 25.2822H53.1944V22.1212H46.4299V10.2149H42.7V25.2822Z" fill="#F3F5F7"/>
<path d="M59.4122 23.1748C57.916 23.1748 57.1363 21.8683 57.1363 19.9085C57.1363 17.9487 57.916 16.621 59.4122 16.621C60.9084 16.621 61.7091 17.9487 61.7091 19.9085C61.7091 21.8683 60.9084 23.1748 59.4122 23.1748ZM59.4332 25.6193C62.9103 25.6193 65.1862 23.1537 65.1862 19.9085C65.1862 16.6632 62.9103 14.1976 59.4332 14.1976C55.9772 14.1976 53.6592 16.6632 53.6592 19.9085C53.6592 23.1537 55.9772 25.6193 59.4332 25.6193Z" fill="#F3F5F7"/>
<path d="M71.2047 29.0122C72.8062 29.0122 74.2182 28.654 75.1664 27.811C76.0304 27.0313 76.5994 25.8512 76.5994 24.2286V14.4928H73.312V15.6518H73.2699C72.6377 14.7457 71.6683 14.1767 70.2353 14.1767C67.559 14.1767 65.7046 16.4105 65.7046 19.5714C65.7046 22.8799 67.9594 24.6922 70.3828 24.6922C71.6894 24.6922 72.5112 24.1654 73.1434 23.4489H73.2277V24.5236C73.2277 25.8302 72.6166 26.5888 71.1625 26.5888C70.0246 26.5888 69.4556 26.1041 69.266 25.5351H65.9364C66.2736 27.79 68.2334 29.0122 71.2047 29.0122ZM71.1836 22.1424C69.8981 22.1424 69.0552 21.0887 69.0552 19.4661C69.0552 17.8224 69.8981 16.7687 71.1836 16.7687C72.6166 16.7687 73.3752 17.9909 73.3752 19.445C73.3752 20.9623 72.6798 22.1424 71.1836 22.1424Z" fill="#F3F5F7"/>
<path d="M83.3589 23.1748C81.8627 23.1748 81.083 21.8683 81.083 19.9085C81.083 17.9487 81.8627 16.621 83.3589 16.621C84.8551 16.621 85.6559 17.9487 85.6559 19.9085C85.6559 21.8683 84.8551 23.1748 83.3589 23.1748ZM83.38 25.6193C86.8571 25.6193 89.1332 23.1537 89.1332 19.9085C89.1332 16.6632 86.8571 14.1976 83.38 14.1976C79.924 14.1976 77.606 16.6632 77.606 19.9085C77.606 23.1537 79.924 25.6193 83.38 25.6193Z" fill="#F3F5F7"/>
<path d="M90.136 25.2822H93.5709V14.4928H90.136V25.2822ZM90.136 12.9966H93.5709V10.2149H90.136V12.9966Z" fill="#F3F5F7"/>
<path d="M95.061 28.8436H98.496V24.1654H98.5381C99.2124 25.0715 100.203 25.6194 101.594 25.6194C104.418 25.6194 106.293 23.3857 106.293 19.8875C106.293 16.6423 104.544 14.1767 101.678 14.1767C100.203 14.1767 99.1492 14.83 98.4117 15.7993H98.3485V14.4928H95.061V28.8436ZM100.709 22.9642C99.2335 22.9642 98.3906 21.763 98.3906 20.014C98.3906 18.2649 99.1492 16.9373 100.645 16.9373C102.121 16.9373 102.816 18.1595 102.816 20.014C102.816 21.8473 102.015 22.9642 100.709 22.9642Z" fill="#F3F5F7"/>
<path d="M111.886 25.6194C114.71 25.6194 116.796 24.3972 116.796 22.037C116.796 19.2764 114.562 18.7917 112.666 18.4756C111.296 18.2227 110.074 18.1174 110.074 17.3587C110.074 16.6844 110.727 16.3683 111.57 16.3683C112.518 16.3683 113.172 16.6633 113.298 17.6327H116.459C116.29 15.5043 114.647 14.1767 111.591 14.1767C109.041 14.1767 106.934 15.3568 106.934 17.6327C106.934 20.1615 108.936 20.6672 110.811 20.9833C112.244 21.2362 113.551 21.3416 113.551 22.3109C113.551 23.0064 112.898 23.3857 111.865 23.3857C110.727 23.3857 110.011 22.8588 109.884 21.7841H106.639C106.744 24.1654 108.725 25.6194 111.886 25.6194Z" fill="#F3F5F7"/>
<path d="M121.461 25.5984C122.958 25.5984 123.906 25.0083 124.686 23.9547H124.749V25.2823H128.036V14.4928H124.601V20.5197C124.601 21.8052 123.885 22.6903 122.705 22.6903C121.609 22.6903 121.082 22.037 121.082 20.8569V14.4928H117.668V21.5734C117.668 23.9757 118.975 25.5984 121.461 25.5984Z" fill="#F3F5F7"/>
<path d="M129.531 25.2823H132.965V19.2343C132.965 17.9488 133.598 17.0426 134.672 17.0426C135.705 17.0426 136.19 17.717 136.19 18.876V25.2823H139.625V19.2343C139.625 17.9488 140.236 17.0426 141.331 17.0426C142.364 17.0426 142.849 17.717 142.849 18.876V25.2823H146.284V18.2649C146.284 15.8415 145.061 14.1767 142.617 14.1767C141.226 14.1767 140.067 14.7667 139.224 16.0733H139.182C138.634 14.9143 137.559 14.1767 136.148 14.1767C134.588 14.1767 133.556 14.9143 132.881 16.0311H132.818V14.4928H129.531V25.2823Z" fill="#F3F5F7"/>
<path fill-rule="evenodd" clip-rule="evenodd" d="M7.59883 3.41691C6.34264 4.29528 5.2067 5.33379 4.22061 6.50284C8.25024 6.12873 13.3697 6.73961 19.3134 9.71148C25.6605 12.8849 30.7714 12.9922 34.3284 12.3061C34.0056 11.3289 33.5993 10.3898 33.118 9.49697C29.0462 9.92642 23.8262 9.35798 17.7428 6.31633C13.8797 4.3848 10.4745 3.58913 7.59883 3.41691ZM30.7395 6.11145C27.524 2.51878 22.8511 0.257812 17.6501 0.257812C16.1227 0.257812 14.6407 0.452833 13.2279 0.819307C15.1414 1.3414 17.1741 2.10521 19.3134 3.17492C23.7674 5.40188 27.6127 6.11892 30.7395 6.11145ZM35.0889 15.7361C30.7917 16.5847 24.8578 16.4104 17.7428 12.8529C11.091 9.527 5.79681 9.56888 2.22619 10.3624C2.04189 10.4033 1.86193 10.4463 1.68631 10.4911C1.21883 11.5078 0.845668 12.5769 0.577923 13.6871C0.863889 13.6107 1.15939 13.5381 1.46428 13.4703C5.79605 12.5077 11.9165 12.5495 19.3134 16.248C25.9653 19.5739 31.2595 19.532 34.8301 18.7385C34.9524 18.7114 35.073 18.6833 35.1915 18.6543C35.2045 18.3775 35.211 18.0989 35.211 17.8188C35.211 17.1141 35.1696 16.4192 35.0889 15.7361ZM34.6182 22.3603C30.3627 23.1043 24.6016 22.8187 17.7428 19.3894C11.091 16.0635 5.79681 16.1054 2.22619 16.8989C1.43362 17.075 0.720638 17.2895 0.091684 17.5159C0.0899692 17.6166 0.0891113 17.7176 0.0891113 17.8188C0.0891113 27.5174 7.95142 35.3797 17.6501 35.3797C25.7782 35.3797 32.6167 29.8576 34.6182 22.3603Z" fill="#F3F5F7"/>
</g>
<defs>
<clipPath id="clip0_48_271">
<rect width="146.634" height="36" fill="white"/>
</clipPath>
</defs>
</svg>
